<?xml version="1.0" standalone="no"?>
<!DOCTYPE svg PUBLIC "-//W3C//DTD SVG 20010904//EN"
 "http://www.w3.org/TR/2001/REC-SVG-20010904/DTD/svg10.dtd">
<svg version="1.0" xmlns="http://www.w3.org/2000/svg"
 width="1050.000000pt" height="1050.000000pt" viewBox="0 0 1050.000000 1050.000000"
 preserveAspectRatio="xMidYMid meet">
<metadata>
Created by potrace 1.14, written by Peter Selinger 2001-2017
</metadata>
<g transform="translate(0.000000,1050.000000) scale(0.100000,-0.100000)"
fill="#000000" stroke="none">
<path d="M8565 10432 c-27 -37 -54 -72 -60 -78 -5 -7 -26 -31 -45 -55 -112
-138 -308 -299 -363 -299 -10 0 -17 -5 -17 -12 0 -6 -3 -9 -6 -6 -3 4 -20 2
-37 -4 -119 -36 -234 -29 -338 22 -107 51 -140 48 -209 -20 -8 -8 -53 -45
-100 -81 -73 -57 -107 -80 -190 -129 -121 -71 -291 -100 -389 -65 -23 8 -44
14 -46 14 -13 0 -105 55 -105 63 0 4 -7 8 -15 8 -8 0 -15 5 -15 11 0 5 -4 7
-10 4 -5 -3 -10 -2 -10 3 0 5 -20 15 -45 22 -43 12 -46 11 -82 -16 -73 -53
-207 -211 -235 -275 -7 -16 -16 -29 -20 -29 -5 0 -8 -6 -8 -12 -1 -12 -30 -61
-114 -189 -58 -89 -157 -174 -270 -229 -58 -28 -111 -53 -118 -54 -7 -1 -24
-8 -36 -15 -13 -7 -26 -10 -29 -8 -2 3 -19 -1 -38 -8 -18 -8 -35 -11 -39 -8
-3 4 -6 2 -6 -4 0 -6 -6 -10 -12 -10 -7 1 -38 -2 -68 -7 -35 -5 -72 -3 -100 4
-25 6 -52 13 -60 14 -8 2 -22 6 -30 9 -15 6 -203 57 -230 62 -8 2 -15 4 -15 5
0 13 -207 21 -246 9 -19 -6 -41 -12 -51 -14 -35 -8 -79 -37 -119 -79 -37 -39
-49 -63 -89 -188 -122 -373 -244 -612 -380 -747 -132 -132 -181 -137 -460 -49
-161 51 -267 114 -309 182 -24 38 -28 104 -9 139 20 34 91 107 105 107 7 0 13
4 13 9 0 5 38 28 84 51 92 47 105 63 113 145 5 57 -13 110 -51 149 -23 22 -32
24 -111 22 -48 -1 -88 1 -90 4 -2 3 -17 7 -34 8 -38 3 -119 47 -149 81 -27 32
-49 76 -57 116 -7 40 -8 152 0 165 16 25 -105 170 -142 170 -24 0 -213 -203
-213 -228 0 -6 -4 -12 -8 -14 -24 -9 -242 -370 -242 -399 0 -5 -4 -9 -10 -9
-5 0 -9 -3 -8 -7 8 -24 -122 -222 -182 -278 l-31 -30 -167 -1 c-178 0 -221 -6
-223 -33 -3 -44 6 -123 20 -169 5 -18 11 -36 12 -40 13 -52 35 -78 104 -121
156 -99 217 -208 208 -376 -11 -208 -11 -212 22 -237 16 -13 49 -42 74 -64 45
-41 45 -42 33 -81 -22 -73 -104 -133 -182 -133 -33 0 -110 39 -188 95 -35 25
-69 45 -75 45 -7 0 -19 -15 -26 -32 -20 -45 -84 -152 -93 -156 -5 -2 -8 -9 -8
-15 0 -7 -11 -25 -25 -42 -13 -16 -37 -45 -52 -64 -51 -61 -126 -131 -143
-131 -5 0 -10 -3 -10 -7 0 -9 -34 -27 -105 -55 -57 -22 -234 -34 -282 -18 -15
5 -39 11 -53 13 -14 1 -35 8 -47 15 -13 7 -23 9 -23 5 0 -4 -5 -2 -12 5 -7 7
-20 12 -29 12 -10 0 -19 3 -21 8 -1 4 -25 18 -53 32 -57 28 -138 80 -143 92
-2 4 -7 8 -12 8 -5 0 -44 22 -87 48 -96 59 -107 64 -127 49 -15 -11 -28 -45
-28 -72 1 -40 30 -131 55 -167 10 -16 16 -28 13 -28 -3 0 8 -21 24 -46 21 -34
27 -51 20 -64 -15 -28 -51 -177 -54 -222 -3 -57 11 -109 35 -130 19 -16 23
-16 60 -1 30 11 60 14 122 10 209 -14 341 -103 352 -237 4 -60 -56 -161 -156
-258 -42 -42 -159 -128 -159 -117 0 3 -6 1 -13 -5 -6 -6 -30 -24 -52 -41 -51
-39 -74 -82 -75 -139 0 -85 64 -151 225 -230 39 -19 72 -38 73 -42 2 -5 8 -8
13 -8 18 0 67 -62 75 -94 18 -74 11 -125 -28 -203 -8 -17 -8 -26 2 -38 7 -8 9
-15 5 -15 -4 0 -1 -10 7 -22 27 -42 52 -115 63 -183 2 -11 4 -20 5 -20 2 0 4
-9 6 -20 5 -33 15 -88 20 -115 24 -118 23 -314 -1 -440 -3 -14 -8 -40 -11 -58
-4 -18 -10 -35 -15 -38 -5 -3 -9 -12 -9 -20 0 -44 -85 -180 -155 -250 -44 -43
-151 -114 -173 -114 -6 0 -12 -5 -12 -10 0 -6 -3 -9 -7 -8 -5 1 -40 -8 -79
-20 -98 -30 -181 -40 -306 -37 l-107 3 -12 -31 c-21 -50 19 -185 83 -279 10
-14 18 -33 18 -41 0 -9 4 -17 8 -19 4 -1 28 -36 52 -76 25 -39 48 -72 52 -72
5 0 8 -4 8 -10 0 -5 6 -18 14 -27 101 -126 177 -212 244 -278 l82 -80 74 -1
c41 -1 92 -8 113 -14 43 -14 125 -51 133 -59 3 -4 24 -19 48 -35 67 -46 143
-136 183 -217 100 -203 123 -283 122 -434 0 -132 -6 -168 -37 -238 -46 -104
-125 -168 -232 -188 -72 -13 -94 -31 -94 -76 0 -84 57 -133 163 -138 99 -6
183 -12 237 -19 25 -3 72 -8 105 -12 33 -4 69 -8 80 -10 18 -1 118 -18 183
-29 12 -2 30 -6 40 -9 9 -3 33 -7 52 -10 19 -3 50 -10 68 -15 18 -5 35 -10 37
-10 40 -4 195 -51 307 -92 187 -69 349 -163 462 -269 183 -170 205 -211 212
-390 4 -118 18 -178 48 -213 30 -34 49 -34 166 3 78 25 392 170 410 190 3 3
21 12 40 22 19 9 62 29 95 45 87 41 139 38 240 -11 44 -22 83 -39 88 -38 4 1
7 -2 7 -7 0 -5 14 -14 30 -21 16 -7 30 -15 30 -19 0 -3 13 -12 28 -19 16 -6
37 -20 48 -30 26 -24 127 -76 197 -102 70 -26 108 -32 203 -33 90 0 155 29
193 88 14 22 30 43 36 47 5 4 7 8 2 8 -4 0 0 15 10 32 9 18 17 36 18 39 1 16
50 109 57 109 4 0 8 6 8 13 0 16 76 98 120 128 48 33 100 60 100 53 0 -4 6 -2
13 3 12 11 69 31 104 37 11 3 36 8 54 14 55 14 109 8 214 -28 104 -34 223 -92
283 -138 125 -94 175 -150 242 -277 36 -67 80 -125 95 -125 2 0 16 5 31 10 38
15 108 -1 203 -46 124 -58 169 -74 216 -74 46 0 74 18 76 48 0 9 2 24 4 32 2
8 6 33 10 55 4 22 13 65 21 95 9 30 17 64 19 74 7 31 26 88 42 126 45 104 88
190 95 190 4 0 8 4 8 9 0 6 15 32 32 58 93 137 201 235 373 335 65 37 65 37
95 45 11 3 20 10 20 16 0 6 3 7 6 4 4 -3 16 -1 28 5 11 7 28 13 36 14 8 2 23
7 35 13 32 15 195 62 265 76 8 2 35 8 60 15 25 7 50 13 56 14 7 1 19 8 27 14
9 7 24 14 36 15 11 0 24 10 29 22 10 22 9 102 -3 180 -10 67 -10 67 -35 164
-21 85 -22 126 -1 229 4 23 7 42 4 42 -2 0 1 8 6 18 5 10 12 37 14 59 10 86
55 165 149 263 64 66 92 78 210 84 144 8 161 14 268 86 94 64 141 128 155 211
12 72 18 95 38 134 20 41 60 97 87 125 25 25 107 90 113 90 7 0 171 105 194
124 8 6 37 35 66 64 51 53 149 139 198 175 59 44 194 127 205 127 7 0 14 4 16
8 2 5 45 30 96 57 84 43 93 51 89 71 -2 13 -1 24 2 24 3 0 6 35 6 78 0 73 -2
81 -33 119 -17 22 -32 45 -32 49 0 5 -7 21 -14 36 -28 54 -80 300 -92 433 -6
64 -21 108 -36 99 -4 -3 -8 0 -8 7 0 8 -4 8 -15 -1 -9 -7 -14 -18 -12 -24 2
-6 0 -22 -5 -35 -5 -13 -11 -40 -14 -60 -3 -20 -10 -51 -16 -69 -5 -18 -11
-39 -12 -45 -11 -52 -57 -191 -90 -268 -28 -66 -88 -161 -125 -198 -43 -44
-105 -91 -120 -91 -6 0 -11 -5 -11 -12 0 -6 -3 -8 -7 -5 -3 4 -11 3 -17 -2
-67 -51 -396 -81 -477 -43 -19 9 -36 19 -39 22 -3 3 -17 13 -33 23 -49 31
-155 137 -187 187 -62 96 -77 169 -66 320 4 63 -8 103 -30 99 -29 -5 -44 5
-55 36 -7 19 -16 35 -20 35 -9 0 -21 73 -24 155 -5 109 26 157 89 141 23 -6
23 -5 22 87 -1 83 2 96 24 129 15 22 36 40 53 43 15 4 27 10 27 14 0 4 17 8
37 9 21 2 38 4 39 5 3 3 13 63 19 107 9 71 38 175 68 241 13 30 36 68 51 84
58 65 71 122 52 240 -10 64 -71 104 -115 76 -16 -11 -69 6 -92 28 -24 24 -39
70 -41 125 -1 43 2 52 27 72 16 13 58 31 94 40 128 34 154 56 145 122 -11 81
-55 148 -185 282 -81 84 -146 172 -166 227 -23 59 -26 69 -29 88 -5 28 -4 128
1 153 3 12 7 32 10 43 12 57 41 135 55 149 3 3 12 17 20 31 49 85 197 198 283
215 10 2 26 5 35 8 9 3 28 7 42 10 166 31 187 43 217 121 13 34 17 135 6 136
-5 0 -15 2 -23 5 -8 2 -28 7 -45 10 -43 10 -102 52 -109 77 -6 24 -3 41 9 72
12 29 165 176 176 170 5 -4 9 -2 9 3 0 24 196 102 297 117 30 5 42 11 42 23 1
55 9 141 16 162 4 14 24 59 43 100 33 70 36 82 36 176 1 129 -10 147 -63 107
-34 -26 -68 -54 -95 -78 -6 -5 -34 -28 -61 -50 -49 -39 -100 -84 -177 -158
-30 -28 -43 -35 -53 -27 -23 19 -134 36 -217 34 -91 -2 -103 -11 -114 -84 -12
-75 -10 -122 7 -189 19 -77 15 -109 -16 -117 -48 -12 -95 -150 -96 -276 0 -23
-6 -26 -70 -33 -30 -3 -78 -13 -108 -21 -29 -8 -56 -13 -59 -10 -3 3 -11 1
-18 -5 -18 -15 -74 -6 -110 17 -38 24 -83 70 -114 116 -28 42 -46 47 -144 42
-81 -5 -97 -7 -111 -15 -12 -7 -190 -4 -220 4 -85 22 -112 30 -124 40 -21 18
-38 -15 -51 -96 -6 -40 -13 -84 -16 -100 -8 -39 -84 -109 -159 -146 -76 -37
-92 -38 -147 -10 -38 19 -117 94 -118 111 0 4 -6 13 -14 20 -7 8 -28 54 -46
103 -18 49 -39 95 -47 103 -37 37 -44 98 -23 182 23 89 22 96 -17 139 -20 23
-42 41 -49 41 -7 0 -14 5 -16 10 -5 15 -77 38 -99 33 -30 -8 -58 -42 -70 -85
-11 -43 -14 -182 -4 -199 4 -5 3 -9 -2 -10 -4 -1 -21 -2 -36 -3 -33 -3 -147
-56 -147 -68 0 -4 -5 -8 -11 -8 -6 0 -30 -16 -54 -36 -56 -45 -79 -43 -170 18
-103 68 -138 77 -280 72 -80 -3 -130 0 -150 8 -37 15 -95 67 -95 85 0 7 -4 13
-9 13 -16 0 -76 162 -87 238 -15 103 -21 184 -15 197 3 6 6 26 6 45 0 19 4 41
8 48 5 6 6 12 3 12 -9 0 21 87 35 105 25 31 154 160 179 180 49 39 139 95 152
95 8 0 19 5 26 12 6 6 17 13 24 14 7 2 24 6 38 10 46 12 181 12 223 -1 23 -7
85 -32 137 -55 54 -24 118 -44 148 -47 47 -5 57 -3 105 28 89 59 143 78 234
86 71 6 175 -15 256 -51 l53 -23 44 44 c61 61 111 73 280 72 74 -1 151 1 170
5 38 8 73 39 78 71 2 11 7 22 11 25 7 5 23 37 25 50 2 12 129 236 163 288 21
32 68 89 105 127 102 107 126 135 173 200 45 62 109 175 100 175 -3 0 -1 9 5
20 6 11 13 33 15 48 2 15 7 38 9 52 17 76 20 101 32 215 10 101 11 275 2 281
-4 3 -6 9 -3 14 6 9 -33 40 -50 40 -5 0 -32 -31 -60 -68z m-3380 -3076 c17 -2
53 -7 80 -10 75 -8 320 -51 357 -62 28 -8 71 -17 91 -18 9 0 17 -4 17 -9 0 -5
6 -7 14 -4 8 3 17 3 21 -1 4 -4 10 -7 13 -8 4 0 27 -7 52 -14 25 -7 47 -14 50
-15 68 -19 97 -28 105 -34 6 -4 28 -13 50 -20 22 -7 49 -16 60 -21 11 -5 49
-21 85 -35 97 -39 324 -151 399 -198 36 -22 75 -45 86 -52 47 -26 140 -89 143
-97 2 -4 10 -8 18 -8 8 0 14 -4 14 -10 0 -5 7 -10 15 -10 8 0 15 -4 15 -8 0
-4 12 -15 28 -24 15 -9 39 -28 54 -42 15 -14 30 -26 33 -26 4 0 19 -12 35 -27
16 -16 37 -35 48 -43 28 -22 93 -82 122 -114 l25 -27 -47 -42 c-25 -23 -57
-50 -70 -59 -13 -9 -48 -35 -78 -57 -30 -22 -59 -44 -65 -48 -50 -40 -375
-220 -375 -207 0 2 -10 -2 -22 -10 -13 -7 -41 -19 -63 -26 -22 -7 -46 -17 -52
-23 -7 -5 -13 -7 -13 -3 0 3 -12 1 -27 -5 -31 -12 -116 -38 -148 -44 -89 -18
-161 -27 -224 -30 -40 -2 -75 -5 -77 -7 -2 -2 -6 -42 -9 -88 -3 -47 -8 -96
-10 -110 -2 -14 -7 -45 -10 -70 -6 -42 -29 -151 -40 -192 -5 -17 -11 -42 -20
-78 -2 -8 -4 -16 -5 -17 -2 -2 -4 -7 -5 -13 -1 -5 -3 -11 -5 -12 -1 -2 -3 -10
-5 -18 -9 -43 -100 -243 -148 -325 -37 -64 -80 -125 -88 -125 -5 0 -9 -6 -9
-12 0 -7 -17 -31 -36 -53 -61 -68 -135 -145 -139 -145 -2 0 -16 -11 -31 -25
-17 -16 -22 -25 -13 -26 8 0 32 -2 54 -4 43 -3 108 -5 140 -5 11 0 36 0 55 0
177 0 417 27 580 67 36 8 74 17 85 18 11 2 21 4 23 4 1 1 4 1 7 1 3 0 25 9 50
20 25 11 45 17 45 13 0 -3 6 0 13 6 8 6 17 8 20 4 4 -3 12 -1 19 4 7 6 24 14
38 18 30 9 169 71 190 85 8 5 29 16 45 23 44 20 218 140 267 184 77 70 168
163 168 172 0 5 4 11 9 13 13 4 101 126 101 138 0 6 4 10 9 10 5 0 13 10 17
23 4 12 10 24 14 27 11 8 90 171 90 186 0 8 5 14 10 14 6 0 9 3 8 8 -1 4 13
52 31 107 18 55 35 111 37 125 3 14 8 34 11 45 9 25 8 21 17 82 8 57 22 75 33
46 4 -10 15 -27 25 -37 9 -10 15 -23 12 -28 -3 -4 -1 -8 4 -8 9 0 172 -317
172 -334 0 -4 10 -28 21 -54 12 -25 22 -51 24 -57 1 -5 7 -23 13 -38 7 -16 12
-33 12 -38 0 -5 4 -17 9 -27 9 -15 16 -35 20 -54 1 -4 9 -27 17 -50 20 -56 83
-299 94 -363 5 -27 12 -63 16 -80 3 -16 7 -43 9 -60 2 -16 6 -41 9 -55 3 -14
8 -47 11 -75 3 -27 8 -68 11 -90 2 -22 6 -63 8 -92 2 -28 6 -56 10 -61 3 -6 2
-13 -3 -16 -5 -4 -6 -18 -2 -34 9 -33 6 -373 -4 -462 -4 -36 -9 -76 -10 -90
-2 -14 -4 -25 -5 -25 -1 0 -3 -17 -5 -38 -2 -21 -6 -48 -9 -61 -3 -13 -8 -40
-12 -61 -3 -21 -10 -49 -15 -62 -5 -13 -6 -23 -4 -23 2 0 0 -12 -6 -27 -6 -16
-12 -37 -14 -48 -3 -22 -45 -155 -70 -224 -42 -116 -143 -336 -175 -381 -11
-15 -20 -35 -20 -44 0 -9 -4 -16 -10 -16 -5 0 -12 -11 -16 -25 -3 -14 -10 -25
-15 -25 -5 0 -9 -7 -9 -15 0 -8 -4 -15 -10 -15 -5 0 -10 -7 -10 -15 0 -8 -3
-15 -8 -15 -4 0 -13 -14 -20 -30 -8 -17 -19 -36 -25 -43 -7 -6 -30 -38 -51
-69 -21 -32 -46 -65 -55 -75 -9 -10 -23 -27 -31 -39 -57 -81 -316 -352 -326
-341 -7 6 -63 216 -69 252 -1 11 -3 20 -5 20 -1 0 -3 11 -5 25 -2 14 -6 41 -9
60 -3 19 -8 46 -10 60 -2 14 -7 39 -10 55 -12 67 -30 223 -41 356 -6 69 -5
368 0 434 11 114 28 223 50 310 9 33 17 68 19 77 3 9 10 27 17 40 7 13 11 23
10 23 -1 0 2 13 8 28 6 16 11 32 11 35 0 17 77 152 117 206 25 32 41 56 36 54
-206 -104 -427 -208 -443 -208 -6 0 -10 -4 -10 -10 0 -5 -5 -10 -12 -10 -7 0
-71 -24 -143 -54 -187 -77 -168 -69 -210 -81 -16 -4 -32 -11 -35 -14 -6 -8
-295 -101 -420 -137 -173 -48 -168 -44 -185 -134 -2 -14 -18 -80 -35 -148 -17
-67 -32 -130 -33 -140 -2 -9 -9 -35 -15 -57 -12 -43 -24 -102 -25 -123 -1 -23
-14 2 -30 58 -17 59 -30 109 -33 125 -1 6 -3 12 -4 15 -1 3 -3 12 -5 20 -18
73 -38 148 -43 160 -3 8 -6 20 -7 25 0 6 -9 41 -20 78 l-18 68 -41 -7 c-23 -4
-57 -9 -76 -10 -19 -1 -35 -3 -35 -4 0 -19 -592 -33 -730 -17 -33 4 -80 9
-105 11 -53 5 -101 12 -139 21 -22 5 -30 2 -36 -12 -5 -15 -39 -136 -49 -178
-1 -5 -5 -19 -9 -30 -3 -11 -8 -31 -11 -45 -3 -14 -10 -43 -16 -65 -6 -22 -13
-47 -15 -55 -2 -8 -4 -16 -4 -17 -1 -2 -1 -4 -1 -5 0 -2 -7 -28 -16 -58 -9
-30 -17 -60 -18 -67 -6 -35 -15 -9 -50 135 -20 86 -39 164 -40 172 -2 8 -5 22
-8 30 -3 8 -16 59 -28 113 -19 82 -25 98 -44 101 -11 3 -79 19 -151 36 -71 17
-134 33 -140 34 -5 1 -14 4 -20 7 -5 4 -35 12 -65 20 -30 7 -58 18 -62 24 -4
5 -8 7 -8 3 0 -9 -203 62 -211 74 -3 5 -10 9 -15 8 -5 0 -18 2 -29 6 -11 3
-22 7 -25 8 -26 8 -220 93 -235 103 -11 7 -26 13 -34 13 -8 0 -22 7 -31 15
-10 9 -27 17 -38 20 -11 2 -31 10 -44 18 -13 8 -62 35 -109 60 -47 24 -111 59
-143 77 l-58 33 34 -49 c18 -27 35 -51 38 -54 33 -31 126 -265 151 -380 5 -25
11 -54 14 -65 14 -69 28 -185 29 -237 0 -27 3 -48 6 -48 13 0 -7 -483 -24
-575 -3 -16 -8 -52 -11 -80 -5 -51 -12 -90 -15 -90 -1 0 -4 -16 -5 -35 -4 -32
-13 -83 -29 -150 -4 -14 -8 -34 -10 -46 -8 -42 -39 -149 -46 -157 -9 -10 -134
116 -230 233 -19 24 -39 48 -45 54 -5 7 -14 19 -20 28 -5 9 -37 56 -69 105
-33 48 -70 104 -82 123 -31 49 -135 254 -162 320 -32 76 -38 90 -55 130 -9 19
-13 38 -11 42 3 4 0 8 -5 8 -6 0 -10 3 -10 8 1 4 0 10 -1 15 -1 4 -3 10 -4 15
-2 7 -33 109 -62 202 -18 59 -71 329 -79 400 -20 193 -25 265 -25 435 0 159 6
303 15 380 3 22 7 63 10 90 6 50 12 90 15 90 1 0 3 16 5 35 2 19 6 46 9 60 2
14 10 52 16 85 6 33 20 90 30 128 10 37 16 67 13 67 -3 0 -1 6 5 13 5 6 13 28
18 47 11 49 11 49 14 55 1 3 3 8 5 13 1 4 5 15 8 25 17 42 20 53 23 64 13 63
186 417 221 451 7 7 13 20 13 28 0 8 2 14 4 14 2 0 12 3 22 7 10 4 15 2 11 -4
-20 -33 92 -370 165 -496 15 -26 28 -50 28 -54 0 -20 148 -210 223 -286 81
-82 265 -227 287 -227 5 0 15 -6 22 -13 13 -12 183 -99 203 -104 6 -1 37 -13
70 -27 33 -14 68 -26 77 -26 9 0 20 -5 23 -10 4 -6 11 -8 16 -5 5 4 9 3 9 -2
0 -4 12 -9 27 -10 15 0 29 -6 31 -12 2 -6 8 -9 13 -5 5 3 24 1 42 -5 17 -6 44
-13 60 -16 15 -3 38 -7 52 -10 14 -3 36 -7 50 -9 14 -3 33 -7 43 -10 9 -3 44
-8 77 -11 33 -4 76 -9 95 -12 56 -7 462 -12 493 -6 27 5 27 6 -50 82 -106 104
-129 131 -205 246 -83 127 -144 251 -190 390 -22 68 -22 68 -43 150 -15 59
-19 82 -30 148 -3 17 -8 46 -11 62 -3 17 -7 60 -8 96 -2 37 -5 70 -8 75 -2 5
-3 19 -2 32 1 25 -30 50 -41 32 -4 -6 -10 -8 -14 -6 -4 3 -40 8 -79 10 -40 3
-82 8 -94 11 -13 2 -34 7 -48 9 -60 9 -198 52 -270 83 -100 43 -217 99 -231
110 -9 7 -19 10 -22 6 -4 -3 -7 -1 -7 5 0 7 -5 12 -10 12 -6 0 -29 12 -53 27
-23 14 -44 25 -46 24 -2 -2 -7 1 -10 6 -3 5 -31 24 -61 43 -30 19 -57 37 -60
40 -3 3 -35 27 -72 53 -114 80 -112 70 -22 155 44 41 101 93 128 116 27 22 66
55 85 72 20 17 52 41 71 54 19 13 40 30 45 36 19 23 282 196 390 256 49 28
321 162 360 177 11 5 31 14 45 20 14 7 32 13 40 14 8 2 20 5 25 8 6 4 42 16
80 28 39 13 77 25 85 28 55 21 299 76 385 87 22 3 63 8 90 12 28 3 52 8 53 9
6 5 492 -3 527 -9z m-1542 -4433 c0 -4 5 -12 10 -18 16 -19 197 -318 197 -326
0 -5 5 -9 10 -9 6 0 10 -4 10 -10 0 -5 44 -80 97 -167 53 -87 98 -159 98 -160
2 -4 97 27 118 38 10 5 22 7 27 4 6 -4 10 -1 10 4 0 6 3 10 8 9 6 -1 60 10
137 28 39 9 193 34 255 41 143 15 595 7 695 -13 11 -3 52 -9 92 -15 71 -10 93
-14 136 -25 12 -3 32 -7 44 -9 20 -3 69 -18 125 -37 15 -6 31 -10 35 -10 4 0
16 -4 26 -9 24 -13 28 -7 120 146 43 72 112 184 153 250 41 66 79 129 84 140
6 11 18 32 28 46 9 14 28 45 42 67 14 23 28 42 32 42 3 0 5 -20 4 -45 -1 -27
2 -45 8 -45 7 0 8 -3 1 -8 -8 -6 -13 -434 -5 -452 1 -3 1 -9 0 -15 -1 -5 -3
-38 -4 -73 -1 -65 6 -80 42 -87 11 -2 45 -15 76 -29 31 -14 59 -26 61 -26 3 0
42 -18 87 -40 46 -22 89 -40 95 -40 7 0 13 -3 13 -8 0 -4 15 -14 33 -21 17 -8
77 -41 132 -74 55 -33 110 -65 123 -72 23 -13 22 -14 -35 -58 -112 -86 -412
-270 -440 -270 -7 0 -13 -4 -13 -8 0 -6 -52 -29 -67 -28 -3 1 -9 -4 -12 -9 -3
-5 -35 -22 -71 -37 -36 -15 -84 -36 -107 -46 -23 -10 -47 -19 -53 -19 -5 0
-18 -4 -28 -9 -45 -23 -69 -31 -312 -107 -14 -4 -33 -9 -42 -10 -10 -1 -21 -3
-25 -4 -5 -2 -12 -4 -18 -5 -5 -2 -13 -4 -17 -5 -5 -1 -11 -3 -15 -4 -60 -15
-82 -19 -104 -21 -15 -1 -31 -5 -35 -8 -8 -4 -93 -19 -121 -20 -7 0 -13 -3
-13 -6 0 -3 -19 -6 -43 -7 -23 -1 -80 -5 -127 -10 -108 -11 -450 -11 -555 -1
-93 10 -102 11 -215 33 -47 9 -92 17 -100 18 -8 1 -22 5 -30 8 -8 3 -67 20
-130 37 -131 36 -126 34 -163 49 -16 7 -32 12 -37 12 -9 0 -25 6 -122 49 -26
11 -53 22 -60 23 -15 4 -331 160 -338 167 -3 3 -18 13 -35 21 -16 8 -34 19
-40 23 -5 4 -57 38 -115 76 -96 62 -260 182 -303 221 -17 16 -16 18 20 43 21
14 50 31 66 38 15 7 27 16 27 20 0 4 14 10 30 14 17 4 30 11 30 16 0 5 3 8 8
7 4 -1 30 8 57 21 82 38 249 90 344 107 l89 16 1 337 c0 400 0 386 7 379 3 -4
6 -10 7 -15z"/>
<path d="M9988 5539 c-57 -29 -101 -94 -112 -162 -1 -7 -5 -18 -9 -24 -5 -7
-5 -13 -1 -13 4 0 1 -8 -7 -17 -8 -10 -21 -31 -29 -48 -8 -16 -21 -35 -29 -41
-10 -8 -12 -23 -7 -60 9 -65 13 -88 16 -91 1 -2 4 -7 5 -13 1 -5 4 -13 5 -17
1 -5 2 -11 1 -15 0 -5 4 -8 10 -8 5 0 8 -4 4 -9 -3 -5 2 -16 10 -24 8 -9 15
-20 15 -25 0 -16 77 -92 93 -92 32 0 54 63 63 180 1 25 4 45 4 45 1 0 4 14 6
30 4 24 39 192 48 230 8 33 21 63 37 84 25 32 24 53 -6 85 -28 30 -65 32 -117
5z"/>
</g>
</svg>
