<?xml version="1.0" encoding="UTF-8" standalone="no"?>
<!DOCTYPE svg PUBLIC "-//W3C//DTD SVG 1.1//EN" "http://www.w3.org/Graphics/SVG/1.1/DTD/svg11.dtd">
<svg width="100%" height="100%" viewBox="0 0 975 1050" version="1.1" xmlns="http://www.w3.org/2000/svg" xmlns:xlink="http://www.w3.org/1999/xlink" xml:space="preserve" xmlns:serif="http://www.serif.com/" style="fill-rule:evenodd;clip-rule:evenodd;stroke-linejoin:round;stroke-miterlimit:2;">
    <g transform="matrix(1,0,0,1,-50.247,-49.9929)">
        <path d="M88,472C88,472 73.986,469.952 88,433C88,433 66.653,401.329 81,396C81,396 89.121,399.999 107,412C120.418,421.007 136.572,427.332 150,427C163.428,426.668 187.806,425.942 213,374C213,374 215.246,372.602 225,381C228.315,383.854 235.166,388.073 241,388C242.836,387.977 253.968,387.506 259,374C260.726,369.368 254.628,365.722 247,360C241.618,355.963 246.469,342.405 246,333C245.858,330.152 248.461,311.466 220,296C215.179,293.38 210.572,279.343 211,265C211,265 214.512,262.146 223,262C227.49,261.923 230.74,263.001 242,263C248.261,262.999 254.426,265.801 273,230C277.571,221.189 291.609,191.625 317,167C317,167 323.285,160.927 334,182C334,182 322.379,225.789 375,220C375,220 389.515,228.911 380,248C380,248 349.36,259.46 350,275C350.187,279.551 349.347,294.48 406,307C418.597,309.784 446.283,294.555 471,209C471,209 478.685,192.002 502,192C520.392,191.998 547.759,204 557,204C566.241,204 598.286,195.359 614,180C617.147,176.925 624.76,168.383 637,146C641.344,138.057 653.062,122.884 664,116C664,116 668.151,114.586 681,124C684.132,126.295 690.84,131.105 705,131C708.162,130.977 727.102,133.405 767,97C767,97 769.399,93.196 784,101C784.449,101.24 788.78,103.873 803,105C804.223,105.097 829.625,102.027 843,86C845.465,83.046 855.58,75.872 870,55C870.947,53.629 873.072,50.69 875,50C875,50 880.231,49.411 881,59C881.288,62.585 880.273,109.494 870,125C867.351,128.998 866.07,134.804 842,159C839.315,161.7 827.21,178.968 815,206C813.656,208.975 812.426,212.553 785,211C779.898,210.711 767.013,210.401 759,223C759,223 744.046,214.35 729,215C711.923,215.738 704.035,225.451 699,227C699,227 691.805,228.921 677,221C671.794,218.214 663.487,215 654,215C644.513,215 633.988,217.457 616,232C614.211,233.446 605.858,241.535 601,248C597.952,252.056 596,265.755 596,273C596,280.245 600.292,322.524 622,323C626.933,323.108 639.066,321.059 646,323C650.732,324.325 652.139,324.209 666,334C668.74,335.935 672.947,335.269 675,333C675.73,332.194 691.148,319.461 702,320C702,320 697.31,295.868 708,291C708,291 716.659,287.398 729,303C729,303 729.328,307.287 727,314C725.708,317.726 726,327 726,327C726,327 731.17,329.661 735,344C736.65,350.177 747.172,367.017 759,367C761.862,366.996 781.683,358.141 783,348C783.899,341.078 785.326,330.492 787,329C787,329 799.903,335.004 815,335C819.108,334.999 836.846,330.555 847,333C847,333 855.748,350.966 869,351C872.329,351.008 884.582,346.121 896,346C896,346 897.716,344.271 898,333C898.133,327.71 902.643,314.771 909,315C909,315 910.854,309.217 908,303C906.451,299.626 905.401,282.954 911,277C911,277 933.843,274.272 942,281C942,281 958.939,264.804 963,262C967.061,259.196 980.719,247.083 983,246C983,246 986.205,246.291 986,259C985.924,263.713 987.057,269.386 979,283C976.589,287.074 976,305 976,305C976,305 943.463,306.584 924,334C921.43,337.62 918.474,347.303 941,351C941,351 944.055,367.787 933,373C921.945,378.213 903.221,373.484 884,397C876.432,406.259 873,421.719 873,430C873,438.281 874.182,451.086 896,472C902.491,478.222 913.224,489.788 912,502C912,502 908.797,507.326 898,509C895.217,509.432 885.841,512.274 885,517C885,517 883.215,534.767 895,536C895,536 897.426,537.782 900,535C900,535 909.993,532.933 910,546C910.002,550.13 913.92,558.491 905,567C894.553,576.966 891,611 891,611C891,611 865.457,608.687 874,640C874,640 870.442,639 868,639C865.558,639 862.828,641.072 862,645C861.172,648.928 860.388,666.091 868,676C868,676 874.656,674.512 875,681C875.344,687.488 873.795,691.847 874,696C874.205,700.153 873.619,721.414 908,742C908,742 955.552,751.081 976,719C982.159,709.337 989.508,694.756 997,657C997.545,654.251 1002.99,656.331 1003,660C1003.01,663.669 1007.93,714.59 1021,722L1020,743C1020,743 979.066,761.861 961,783C953.081,792.266 941.546,798.207 932,804C922.727,809.628 911.161,822.664 910,836C909.537,841.318 908.609,849.623 893,860C883.728,866.164 881.275,867.445 860,868C860,868 850.564,865.986 834,892C833.194,893.266 828.739,914.295 827,927C826.631,929.693 837.229,960.433 833,972C833,972 830.339,975.811 806,981C798.606,982.576 753.614,993.372 731,1024C721.92,1036.3 709.287,1053.37 703,1096C703,1096 700.34,1105.4 675,1092C667.436,1088 655.937,1084.02 654,1087C654,1087 649.118,1093.37 640,1073C637.546,1067.52 622.829,1040.73 575,1030C574.294,1029.84 549.796,1032.83 536,1045C529.087,1051.1 525.87,1056.87 518,1075C516.549,1078.34 512.266,1086.23 502,1088C497.79,1088.72 479.413,1091.91 453,1073C441.709,1064.91 428.015,1058.27 421,1057C413.985,1055.73 393.177,1068.54 378,1076C374.029,1077.95 366.186,1083.05 344,1089C344,1089 332.131,1092.89 333,1064C333.145,1059.17 331.826,1042.97 320,1034C313.008,1028.69 286.958,985.221 147,978C147,978 138.313,974.253 138,965C137.854,960.694 140.467,957.044 149,957C149,957 174.939,953.835 175,917C175.011,910.137 176.949,898.871 161,868C154.762,855.925 132.626,834.609 108,839C108,839 74.429,811.049 55,770C51.975,763.608 47.155,752.194 53,747C53,747 141.021,761.816 142,670C142.107,659.988 138.621,625.805 128,609C128,609 134.329,597.362 133,592C131.948,587.754 133.208,579.49 116,572C111.907,570.218 92.506,562.085 93,549C93.2,543.704 94.215,537.166 110,529C119.052,524.317 138.926,506.019 139,493C139.028,487.958 133.469,469.749 100,469C90.685,468.792 88,472 88,472ZM501,863C501,863 552.609,861.827 592,877L636,805L636,878C636,878 668.103,888.356 704,912C704,912 623.983,981 503,981C389.017,980.998 306,904 306,904C341.897,880.356 375,878 375,878L375,805L419,877C458.391,861.827 501,863 501,863ZM497.995,363L497.99,363L498,363L497.995,363C648.383,363.032 734,458 734,458C734,458 675.967,513.94 607,514C607,514 609.598,595.449 549,645C549,645 741.246,668.55 767,499C767,499 818.106,567.925 819,686C819.985,816.124 725,894 725,894C723.78,896.715 682.126,752.304 738,689C738,689 672.335,726.393 593,746L579,804L564,747C564,747 533.676,751.996 504,752C474.324,751.996 448,747 448,747L433,804L419,746C341.665,731.393 274,689 274,689C327.874,750.304 289.22,889.715 288,887C288,887 202,817.124 202,674C202,563.922 247,508 247,508C275.754,667.55 462,645 462,645C401.402,595.449 404,514 404,514C345.033,516.94 282,463 282,463C282,463 373.607,362.995 497.995,363ZM991,578C991,578 997.628,572.896 1001,558C1002.88,549.691 1011.81,544.213 1018,544C1021.41,543.882 1026,547.821 1025,554C1025,554 1020.06,550.625 1014,593C1012.95,600.376 1013.03,612.014 1007,612C1004.97,611.995 991.644,599.9 991,578Z" style="fill:white;"/>
    </g>
</svg>
